<svg
  xmlns="http://www.w3.org/2000/svg"
  width="576"
  height="1000"
  viewBox="0 0 576.00001 1000"
>
  <defs
     id="defs4" />
  <g
     id="layer3"
     style="display:inline"
     transform="translate(0,-52.362161)">
    <path
       style="fill:#ffffff;fill-rule:evenodd;stroke:none;stroke-width:1px;stroke-linecap:butt;stroke-linejoin:miter;stroke-opacity:1;fill-opacity:1"
       d="m 203.04066,495.76811 1.51523,-207.58635 C 219.87654,102.81877 393.79113,112.41522 422.24376,232.62338 l -76.26652,0.50507 c -43.2682,-0.16836 -56.23182,9.25973 -60.10407,85.86297 l 0.50507,176.77669 z"
       id="path5179"/>
    <path
       style="fill:#ffffff;fill-rule:evenodd;stroke:none;stroke-width:1px;stroke-linecap:butt;stroke-linejoin:miter;stroke-opacity:1;fill-opacity:1"
       d="M 205.56604,306.36451 202.53558,98.273088 c -12.73065,30.425742 -49.58041,37.672802 -69.70052,1.010152 l 0.50508,172.23101 -66.670072,-77.78175 c 26.769042,39.56431 -24.243661,78.62354 -56.063466,44.44671 l 91.923878,110.10663 c 27.7792,-23.06515 60.60915,-37.03893 103.03556,-41.92133 z"
       id="path5181"/>
    <path
       style="fill:#ffffff;fill-rule:evenodd;stroke:none;stroke-width:1px;stroke-linecap:butt;stroke-linejoin:miter;stroke-opacity:1;fill-opacity:1"
       d="m 204.05081,376.06504 -2.0203,119.70307 c -26.9374,-16.16244 -59.33113,-53.89363 -50.00255,-86.36804 5.16413,-17.97727 28.81073,-35.00654 52.02285,-33.33503 z"
       id="path5183"/>
    <ellipse
       style="fill:#ffffff;fill-opacity:1;stroke:none;stroke-width:1.05979717;stroke-miterlimit:4;stroke-dasharray:none;stroke-opacity:1"
       id="path5185"
       cx="115.36662"
       cy="549.41077"
       rx="53.203125"
       ry="53.486301" />
    <path
       style="fill:#ffffff;fill-opacity:1;fill-rule:evenodd;stroke:none;stroke-width:1px;stroke-linecap:butt;stroke-linejoin:miter;stroke-opacity:1"
       d="m 286.37824,501.82903 64.14469,0 -0.50508,161.6244 -111.11677,147.98735 -39.39595,-55.55839 c 62.79781,-22.56007 86.70475,-78.45518 86.87311,-114.65231 z"
       id="path5187"/>
    <path
       style="fill:#ffffff;fill-rule:evenodd;stroke:none;stroke-width:1px;stroke-linecap:butt;stroke-linejoin:miter;stroke-opacity:1;fill-opacity:1"
       d="m 93.704339,723.76672 26.799671,40.55403 c 28.03101,3.60558 51.24059,-0.11028 78.73589,-7.93328 l -65.54262,-92.87802 z"
       id="path5189"/>
    <path
       style="fill:#ffffff;fill-rule:evenodd;stroke:none;stroke-width:1px;stroke-linecap:butt;stroke-linejoin:miter;stroke-opacity:1;fill-opacity:1"
       d="m 133.59267,785.17681 -0.25253,193.69675 69.19544,0.25254 -0.50507,-98.48987 z"
       id="path5191"/>
    <path
       style="fill:#ffffff;fill-rule:evenodd;stroke:none;stroke-width:1px;stroke-linecap:butt;stroke-linejoin:miter;stroke-opacity:1;fill-opacity:1"
       d="m 358.60415,812.95601 117.68277,-293.44931 40.4061,178.797 -102.0254,287.38839 z"
       id="path5193"/>
    <path
       style="fill:#ffffff;fill-rule:evenodd;stroke:none;stroke-width:1px;stroke-linecap:butt;stroke-linejoin:miter;stroke-opacity:1;fill-opacity:1"
       d="m 422.5,343.07645 -0.17857,-36.42857 c -16.78572,0.41667 -30,1.90476 -43.39286,10.35714 z"
       id="path5195"/>
  </g>
  <g
     id="layer2"
     style="display:inline;opacity:1"
     transform="translate(0,-52.362161)">
    <path
       id="path4194"
       style="display:inline;opacity:1;fill:#fe547d;fill-opacity:1;fill-rule:evenodd;stroke:none;stroke-width:1.5;stroke-linecap:butt;stroke-linejoin:miter;stroke-miterlimit:4;stroke-dasharray:none;stroke-opacity:1"
       d="m 286.62487,640.7224 -84.3378,0.0233 c 71.56287,-42.73602 61.67528,-103.76162 -9.2e-4,-144.79662 m 0,0 84.33872,0 0,144.77331"/>
    <path
       style="display:inline;opacity:1;fill:#fe547d;fill-opacity:1;stroke:none;stroke-width:1.5;stroke-linecap:butt;stroke-miterlimit:4;stroke-dasharray:none;stroke-opacity:1"
       d="m 351.85065,568.35884 0,-71.01932 81.74099,0 81.74101,0 0.89971,4.79862 c 1.76775,9.42825 2.93693,18.87992 4.28708,34.65656 2.24066,26.18241 4.61827,77.45321 3.54067,76.35111 -0.22937,-0.2346 -11.19656,-19.42902 -24.37153,-42.65426 -13.17495,-23.22523 -24.0813,-42.35734 -24.23633,-42.51579 -0.15502,-0.15843 -17.42503,24.84226 -38.37779,55.55715 l -38.0959,55.84525 -23.56395,0 -23.56396,0 0,-71.01932 z"
       id="path4234"/>
    <path
       style="display:inline;opacity:1;fill:#333333;fill-opacity:1;stroke:none;stroke-width:1.5;stroke-linecap:butt;stroke-miterlimit:4;stroke-dasharray:none;stroke-opacity:1"
       d="m 85.926487,363.38491 c 19.768863,-19.73727 42.728953,-34.99132 69.586413,-44.72627 11.29144,-4.09279 39.46527,-11.50293 44.99218,-11.50293 l 3.16822,0 -0.26891,68.08 c -82.45758,15.57131 -58.39719,85.0779 -1.2901,120.00195 60.82071,37.1951 74.51827,104.73805 0.32843,145.54275 l -151.311103,0 C 0.87260443,548.23224 33.312482,418.66541 85.926487,363.38491 Z M 129.4087,601.71807 c 13.77821,-4.09036 23.63503,-11.0937 30.77624,-21.86672 6.83054,-10.30433 9.17527,-19.20965 8.66439,-32.90743 -0.38033,-10.19754 -0.90815,-12.48118 -4.74051,-20.50956 -2.71198,-5.68129 -6.59739,-11.30531 -10.46881,-15.15325 -31.58621,-31.39466 -84.454979,-14.16109 -91.868303,29.94622 -4.483041,26.67293 14.306074,54.89572 40.684733,61.11179 7.43536,1.75212 19.92797,1.46426 26.95226,-0.62105 z"
       id="path4252"/>
    <path
       style="display:inline;opacity:1;fill:#333333;fill-opacity:1;stroke:none;stroke-width:1;stroke-linecap:butt;stroke-miterlimit:4;stroke-dasharray:none;stroke-opacity:1"
       d="m 351.50988,440.74698 c 0,-53.72697 0.0152,-54.50857 2.10899,-66.62897 3.20484,-17.21441 8.22926,-44.89502 24.48013,-55.28952 82.27006,36.25503 122.80305,110.82024 137.27693,175.75065 l -163.86605,0.28644 z"
       id="path4267"/>
    <path
       id="path4269"
       d="M 202.28615,89.377377 A 34.344938,34.390698 0 0 1 167.94123,123.76806 34.344938,34.390698 0 0 1 133.59629,89.377377 34.344938,34.390698 0 0 1 167.94123,54.986679 34.344938,34.390698 0 0 1 202.28615,89.377377 Z"
       style="display:inline;fill:#333333;fill-opacity:1;stroke:none;stroke-width:3.10972738;stroke-miterlimit:4;stroke-dasharray:none;stroke-opacity:1" />
    <path
       style="display:inline;fill:#333333;fill-opacity:1;stroke:none;stroke-width:3.23071384;stroke-miterlimit:4;stroke-dasharray:none;stroke-opacity:1"
       d="m 65.72527,192.50468 a 35.681156,35.728696 0 0 1 -4.397943,50.33572 35.681156,35.728696 0 0 1 -50.268748,-4.4038 35.681156,35.728696 0 0 1 4.397944,-50.33572 35.681156,35.728696 0 0 1 50.268747,4.4038 z"
       id="path4271"/>
    <path
       id="path4273"
       d="m 194.25259,957.49324 a 34.337907,34.383657 0 0 1 -4.23238,48.44076 34.337907,34.383657 0 0 1 -48.37634,-4.238 34.337907,34.383657 0 0 1 4.23239,-48.44078 34.337907,34.383657 0 0 1 48.37633,4.23802 z"
       style="display:inline;fill:#333333;fill-opacity:1;stroke:none;stroke-width:3.10909081;stroke-miterlimit:4;stroke-dasharray:none;stroke-opacity:1" />
    <path
       style="display:inline;fill:#333333;fill-opacity:1;stroke:none;stroke-width:3.31065226;stroke-miterlimit:4;stroke-dasharray:none;stroke-opacity:1"
       d="m 573.20967,269.64777 a 36.564022,36.612739 0 0 1 -36.56401,36.61272 36.564022,36.612739 0 0 1 -36.56401,-36.61274 36.564022,36.612739 0 0 1 36.56403,-36.61271 36.564022,36.612739 0 0 1 36.56399,36.61273 z"
       id="path4275"/>
    <path
       style="display:inline;opacity:1;fill:#ff6600;fill-opacity:1;stroke:none;stroke-width:1.5;stroke-linecap:butt;stroke-miterlimit:4;stroke-dasharray:none;stroke-opacity:1"
       d="m 50.138783,640.75848 236.079997,0.30161 c -1.16791,11.51965 -2.23467,21.70381 -5.27822,33.22743 l -139.19757,0 -8.43387,-9.95316 -6.92783,9.95316 -62.247053,0 C 59.477525,661.91534 54.389792,652.35826 50.138783,640.75848 Z"
       id="path4299"/>
    <path
       style="display:inline;fill:#ffb380;fill-opacity:1;fill-rule:evenodd;stroke:none;stroke-width:1px;stroke-linecap:butt;stroke-linejoin:miter;stroke-opacity:1"
       d="m 280.90189,674.80443 c -5.8234,16.18645 -11.94799,27.24555 -21.98832,39.51105 l -88.85686,1.20646 -28.61493,-41.01912 z"
       id="path4301"/>
    <path
       id="path4303"
       d="m 66.13934,675.40767 c 7.329439,15.88482 12.550394,26.03909 21.687113,39.81266 l 12.650797,-0.30162 25.30161,-40.41589 z"
       style="display:inline;fill:#ffb380;fill-opacity:1;fill-rule:evenodd;stroke:none;stroke-width:1px;stroke-linecap:butt;stroke-linejoin:miter;stroke-opacity:1" />
    <path
       style="display:inline;fill:#ffdd55;fill-opacity:1;fill-rule:evenodd;stroke:none;stroke-width:1px;stroke-linecap:butt;stroke-linejoin:miter;stroke-opacity:1"
       d="m 170.65912,715.82353 87.04963,2e-5 c -17.26936,19.40365 -34.53874,30.96541 -58.13348,40.11427 z"
       id="path4305"/>
    <path
       style="display:inline;fill:#217867;fill-rule:evenodd;stroke:none;stroke-width:1px;stroke-linecap:butt;stroke-linejoin:miter;stroke-opacity:1"
       d="m 133.61032,665.15289 -3.01209,66.35442 -21.68709,12.66767 -15.06049,-20.50954 z"
       id="path4307"/>
    <path
       style="display:inline;fill:#ff6600;fill-opacity:1;fill-rule:evenodd;stroke:none;stroke-width:1px;stroke-linecap:butt;stroke-linejoin:miter;stroke-opacity:1"
       d="m 350.18012,641.024 0,22.31921 33.43429,0.30162 16.56653,-22.92245 z"
       id="path4309"/>
    <path
       style="display:inline;fill:#217867;fill-opacity:1;fill-rule:evenodd;stroke:none;stroke-width:1px;stroke-linecap:butt;stroke-linejoin:miter;stroke-opacity:1"
       d="m 474.88095,531.23757 -24.39797,103.15098 15.36168,-6.33383 -15.66289,76.00599 -84.94116,112.19931 25.90405,-6.33383 -40.66332,226.26831 0.30119,-371.94645 33.13308,-0.90484 z"
       id="path4311"/>
    <path
       style="display:inline;fill:#2ca089;fill-opacity:1;fill-rule:evenodd;stroke:none;stroke-width:1px;stroke-linecap:butt;stroke-linejoin:miter;stroke-opacity:1"
       d="m 391.14466,809.92619 24.69919,145.37653 -65.36251,80.89178 z"
       id="path4313"/>
    <path
       style="display:inline;fill:#165044;fill-rule:evenodd;stroke:none;stroke-width:1px;stroke-linecap:butt;stroke-linejoin:miter;stroke-opacity:1"
       d="m 350.48134,1036.1945 75.30243,-20.8712 -5.55342,30.977 c -25.87196,3.3844 -45.75649,-0.5367 -69.74901,-10.1058 z"
       id="path4315"/>
    <path
       style="display:inline;fill:#2ca089;fill-rule:evenodd;stroke:none;stroke-width:1px;stroke-linecap:butt;stroke-linejoin:miter;stroke-opacity:1"
       d="M 415.84385,955.30272 442.0491,915.18845 425.78377,1015.3233 Z"
       id="path4317"/>
    <path
       style="display:inline;fill:#217867;fill-rule:evenodd;stroke:none;stroke-width:1px;stroke-linecap:butt;stroke-linejoin:miter;stroke-opacity:1"
       d="m 415.84385,955.30272 9.93992,60.02058 -75.30243,20.8712 z"
       id="path4319"/>
    <path
       style="display:inline;fill:#333333;fill-rule:evenodd;stroke:none;stroke-width:1px;stroke-linecap:butt;stroke-linejoin:miter;stroke-opacity:1"
       d="m 420.23035,1046.3003 21.81875,-131.11185 18.49305,102.41575 c -12.47925,12.2923 -24.81709,21.3482 -40.3118,28.6961 z"
       id="path4321"/>
    <path
       style="display:inline;fill:#217867;fill-opacity:1;fill-rule:evenodd;stroke:none;stroke-width:1px;stroke-linecap:butt;stroke-linejoin:miter;stroke-opacity:1"
       d="m 442.0491,915.18845 55.72379,-111.89771 26.30486,3.35626 c -7.54666,86.18647 -4.10343,138.82846 -63.5356,210.9572 z"
       id="path4323"/>
    <path
       style="display:inline;fill:#333333;fill-rule:evenodd;stroke:none;stroke-width:1px;stroke-linecap:butt;stroke-linejoin:miter;stroke-opacity:1"
       d="m 430.98205,932.12957 77.63439,-238.02202 -23.19314,15.68377 -10.54235,-178.55375 51.35765,88.96622 c 0.86207,63.35445 0.22636,123.38053 -2.16085,186.44321 l -26.30486,-3.35626 -55.72379,111.89771 z"
       id="path4325"/>
    <path
       style="display:inline;fill:#333333;fill-opacity:1;fill-rule:evenodd;stroke:none;stroke-width:1px;stroke-linecap:butt;stroke-linejoin:miter;stroke-opacity:1"
       d="m 120.25807,764.09993 c 28.96348,1.38283 52.4718,-0.97575 79.3172,-8.16211 l 38.85604,56.09964 112.35122,-147.78941 -0.30119,371.94645 -72.47738,-64.55542 -17.16004,-128.75785 -23.93033,82.10201 z"
       id="path4204"/>
    <path
       style="display:inline;fill:#2ca089;fill-opacity:1;fill-rule:evenodd;stroke:none;stroke-width:1px;stroke-linecap:butt;stroke-linejoin:miter;stroke-opacity:1"
       d="m 236.91359,924.98324 23.93033,-82.10201 17.16004,128.75785 z"
       id="path4206"/>
    <path
       style="display:inline;fill:#5fbcd3;fill-opacity:1;fill-rule:evenodd;stroke:none;stroke-width:1px;stroke-linecap:butt;stroke-linejoin:miter;stroke-opacity:1"
       d="m 286.62487,503.79098 63.85647,0 0,-117.62832 c 4.21694,-56.09966 21.68709,-77.81565 72.29032,-79.62532 l 114.45971,0 c -46.3863,-1.00538 -54.21775,-73.19094 0,-73.5931 l -177.11132,0 c -65.37327,-0.11941 -69.47906,15.88484 -73.49518,73.5931 z"
       id="path4208"/>
    <path
       id="path4256"
       style="fill:none;fill-rule:evenodd;stroke:#000000;stroke-width:5.06369352;stroke-linecap:butt;stroke-linejoin:miter;stroke-miterlimit:4;stroke-dasharray:none;stroke-opacity:1"
       d="M 204.69582,307.74379 202.28615,89.377377 m 2.39636,217.159963 C 15.690073,330.28242 -20.492031,550.16909 89.031282,716.72837 155.60411,817.97004 210.83275,902.60636 291.44423,985.76544 374.68249,1071.6343 440.36411,1081.6695 502.29104,950.77857 534.21537,883.30219 530.48577,569.34696 517.95396,503.18776 498.2997,399.42716 435.98157,342.89402 378.19262,317.39533"/>
    <path
       style="fill:none;fill-rule:evenodd;stroke:#000000;stroke-width:5.06369352;stroke-linecap:butt;stroke-linejoin:miter;stroke-miterlimit:4;stroke-dasharray:none;stroke-opacity:1"
       d="m 133.61034,89.377377 0,183.063463 -67.471,-80.5157"
       id="path4258"/>
    <path
       style="fill:none;fill-rule:evenodd;stroke:#000000;stroke-width:5.06369352;stroke-linecap:butt;stroke-linejoin:miter;stroke-miterlimit:4;stroke-dasharray:none;stroke-opacity:1"
       d="M 10.932476,238.31092 103.48935,348.76288"
       id="path4274"/>
    <path
       style="fill:none;fill-rule:evenodd;stroke:#000000;stroke-width:5.06369352;stroke-linecap:butt;stroke-linejoin:miter;stroke-miterlimit:4;stroke-dasharray:none;stroke-opacity:1"
       d="m 202.28615,495.34586 2.39636,-188.80852 C 202.28615,120.34277 381.80717,94.203166 422.77168,232.94424"
       id="path4292"/>
    <path
       style="fill:none;fill-rule:evenodd;stroke:#000000;stroke-width:5.01873684;stroke-linecap:butt;stroke-linejoin:miter;stroke-miterlimit:4;stroke-dasharray:none;stroke-opacity:1"
       d="m 203.77705,495.94909 82.84782,0"
       id="path4306"/>
    <path
       style="fill:none;fill-rule:evenodd;stroke:#000000;stroke-width:2.53184676;stroke-linecap:butt;stroke-linejoin:miter;stroke-miterlimit:4;stroke-dasharray:none;stroke-opacity:1"
       d="m 286.62487,640.7224 -236.383279,0"
       id="path4308"/>
    <path
       style="fill:none;fill-rule:evenodd;stroke:#000000;stroke-width:2.53184676;stroke-linecap:butt;stroke-linejoin:miter;stroke-miterlimit:4;stroke-dasharray:none;stroke-opacity:1"
       d="m 281.19131,674.50284 -216.314166,0"
       id="path4310"/>
    <path
       style="fill:none;fill-rule:evenodd;stroke:#000000;stroke-width:2.53184676;stroke-linecap:butt;stroke-linejoin:miter;stroke-miterlimit:4;stroke-dasharray:none;stroke-opacity:1"
       d="m 258.1894,715.52194 -169.948271,0"
       id="path4312"/>
    <path
       style="fill:none;fill-rule:evenodd;stroke:#000000;stroke-width:5.06369352;stroke-linecap:butt;stroke-linejoin:miter;stroke-miterlimit:4;stroke-dasharray:none;stroke-opacity:1"
       d="m 133.61034,784.12984 0,196.80982"
       id="path4314"/>
    <path
       style="fill:none;fill-rule:evenodd;stroke:#000000;stroke-width:5.06369352;stroke-linecap:butt;stroke-linejoin:miter;stroke-miterlimit:4;stroke-dasharray:none;stroke-opacity:1"
       d="m 202.28615,980.93966 0,-99.61027"
       id="path4316"/>
    <path
       style="fill:none;fill-rule:evenodd;stroke:#000000;stroke-width:5.06369352;stroke-linecap:butt;stroke-linejoin:miter;stroke-miterlimit:4;stroke-dasharray:none;stroke-opacity:1"
       d="m 350.48134,1036.1945 0,-650.03184 c 8.43388,-60.32222 20.48228,-78.41887 72.29034,-79.62532 l 114.45969,0"
       id="path4320"/>
    <path
       style="fill:none;fill-rule:evenodd;stroke:#000000;stroke-width:5.06369352;stroke-linecap:butt;stroke-linejoin:miter;stroke-miterlimit:4;stroke-dasharray:none;stroke-opacity:1"
       d="m 537.23137,232.94424 -186.75003,0 c -52.6113,0.40216 -55.8242,10.45585 -63.85647,73.5931 l 0,334.18506 c 0,68.18813 -66.64793,135.71746 -166.3668,123.37753"
       id="path4322"/>
    <path
       id="path4326"
       style="fill:none;fill-rule:evenodd;stroke:#000000;stroke-width:5.06369352;stroke-linecap:butt;stroke-linejoin:miter;stroke-miterlimit:4;stroke-dasharray:none;stroke-opacity:1"
       d="M 93.808902,723.99456 133.61034,663.64485 238.43131,812.03746 350.48134,663.64485 m 0,0 33.73548,0 90.96535,-133.31211 51.05643,89.87105"/>
    <path
       style="fill:none;fill-rule:evenodd;stroke:#000000;stroke-width:2.53184676;stroke-linecap:butt;stroke-linejoin:miter;stroke-miterlimit:4;stroke-dasharray:none;stroke-opacity:1"
       d="m 399.85793,640.7224 -49.37659,0"
       id="path4331"/>
    <path
       style="fill:none;fill-rule:evenodd;stroke:#000000;stroke-width:5.06369352;stroke-linecap:butt;stroke-linejoin:miter;stroke-miterlimit:4;stroke-dasharray:none;stroke-opacity:1"
       d="m 350.48134,495.94909 166.01657,0"
       id="path4333"/>
    <path
       style="fill:none;stroke:#000000;stroke-width:5.24890232;stroke-miterlimit:4;stroke-dasharray:none;stroke-opacity:1"
       d="M 202.28615,89.377377 A 34.344938,34.390698 0 0 1 167.94123,123.76806 34.344938,34.390698 0 0 1 133.59629,89.377377 34.344938,34.390698 0 0 1 167.94123,54.986679 34.344938,34.390698 0 0 1 202.28615,89.377377 Z"
       id="path4337"/>
    <path
       id="path4340"
       d="m 65.72527,192.50468 a 35.681156,35.728696 0 0 1 -4.397943,50.33572 35.681156,35.728696 0 0 1 -50.268748,-4.4038 35.681156,35.728696 0 0 1 4.397944,-50.33572 35.681156,35.728696 0 0 1 50.268747,4.4038 z"
       style="fill:none;stroke:#000000;stroke-width:5.45311499;stroke-miterlimit:4;stroke-dasharray:none;stroke-opacity:1" />
    <path
       style="fill:none;stroke:#000000;stroke-width:5.24782753;stroke-miterlimit:4;stroke-dasharray:none;stroke-opacity:1"
       d="m 194.25259,957.49324 a 34.337907,34.383657 0 0 1 -4.23238,48.44076 34.337907,34.383657 0 0 1 -48.37634,-4.238 34.337907,34.383657 0 0 1 4.23239,-48.44078 34.337907,34.383657 0 0 1 48.37633,4.23802 z"
       id="path4342"/>
    <path
       id="path4344"
       d="m 573.20967,269.64777 a 36.564022,36.612739 0 0 1 -36.56401,36.61272 36.564022,36.612739 0 0 1 -36.56401,-36.61274 36.564022,36.612739 0 0 1 36.56403,-36.61271 36.564022,36.612739 0 0 1 36.56399,36.61273 z"
       style="fill:none;stroke:#000000;stroke-width:5.58804274;stroke-miterlimit:4;stroke-dasharray:none;stroke-opacity:1" />
    <path
       style="fill:none;fill-rule:evenodd;stroke:#000000;stroke-width:5.06369352;stroke-linecap:butt;stroke-linejoin:miter;stroke-miterlimit:4;stroke-dasharray:none;stroke-opacity:1"
       d="m 422.77166,306.53734 2e-5,36.88761"
       id="path4346"/>
    <path
       style="fill:none;stroke:#000000;stroke-width:2.67593551;stroke-miterlimit:4;stroke-dasharray:none;stroke-opacity:1"
       d="m 168.90036,549.39458 a 53.483106,53.554343 0 0 1 -53.4831,53.55433 53.483106,53.554343 0 0 1 -53.4831,-53.55433 53.483106,53.554343 0 0 1 53.4831,-53.55438 53.483106,53.554343 0 0 1 53.4831,53.55438 z"
       id="path4183"/>
    <path
       style="opacity:1;fill:none;fill-rule:evenodd;stroke:#000000;stroke-width:2.53184676;stroke-linecap:butt;stroke-linejoin:miter;stroke-miterlimit:4;stroke-dasharray:none;stroke-opacity:1"
       d="m 202.28615,640.7224 c 71.56379,-42.71271 61.6762,-103.73831 0,-144.77331 -84.57585,-56.27082 -53.43002,-118.96785 1.51978,-120.12589"
       id="path4185"/>
    <path
       style="fill:none;fill-rule:evenodd;stroke:#000000;stroke-width:2.53184676;stroke-linecap:butt;stroke-linejoin:miter;stroke-miterlimit:4;stroke-dasharray:none;stroke-opacity:1"
       d="m 236.91359,924.98324 23.93033,-82.10201 17.16004,128.75787"
       id="path4202"/>
  </g>
</svg>
